<?xml version="1.0" encoding="UTF-8" standalone="no"?>
<!-- Generator: Adobe Illustrator 16.0.0, SVG Export Plug-In . SVG Version: 6.00 Build 0)  -->

<svg
   xmlns:dc="http://purl.org/dc/elements/1.1/"
   xmlns:cc="http://creativecommons.org/ns#"
   xmlns:rdf="http://www.w3.org/1999/02/22-rdf-syntax-ns#"
   xmlns:svg="http://www.w3.org/2000/svg"
   xmlns="http://www.w3.org/2000/svg"
   xmlns:sodipodi="http://sodipodi.sourceforge.net/DTD/sodipodi-0.dtd"
   xmlns:inkscape="http://www.inkscape.org/namespaces/inkscape"
   version="1.1"
   id="Capa_1"
   x="0px"
   y="0px"
   width="612px"
   height="612px"
   viewBox="0 0 612 612"
   style="enable-background:new 0 0 612 612;"
   xml:space="preserve"
   inkscape:version="0.48.5 r10040"
   sodipodi:docname="from_dark.svg"><metadata
     id="metadata44"><rdf:RDF><cc:Work
         rdf:about=""><dc:format>image/svg+xml</dc:format><dc:type
           rdf:resource="http://purl.org/dc/dcmitype/StillImage" /></cc:Work></rdf:RDF></metadata><defs
     id="defs42" /><sodipodi:namedview
     pagecolor="#ffffff"
     bordercolor="#666666"
     borderopacity="1"
     objecttolerance="10"
     gridtolerance="10"
     guidetolerance="10"
     inkscape:pageopacity="0"
     inkscape:pageshadow="2"
     inkscape:window-width="640"
     inkscape:window-height="480"
     id="namedview40"
     showgrid="false"
     inkscape:zoom="0.38562092"
     inkscape:cx="306"
     inkscape:cy="306"
     inkscape:window-x="0"
     inkscape:window-y="0"
     inkscape:window-maximized="0"
     inkscape:current-layer="Capa_1" /><g
     id="g3"
     style="fill:#ffffff"><g
       id="Sun"
       style="fill:#ffffff"><g
         id="g6"
         style="fill:#ffffff"><path
           d="M104.914,306c0-14.478-11.75-26.229-26.229-26.229H26.229C11.75,279.771,0,291.522,0,306     c0,14.479,11.75,26.229,26.229,26.229h52.457C93.164,332.229,104.914,320.479,104.914,306z M131.143,454.629     c-7.239,0-13.796,2.938-18.553,7.676l-34.971,34.972c-4.739,4.756-7.676,11.313-7.676,18.552     c0,14.479,11.733,26.229,26.229,26.229c7.239,0,13.796-2.938,18.535-7.693l34.972-34.972c4.756-4.738,7.694-11.295,7.694-18.534     C157.372,466.379,145.639,454.629,131.143,454.629z M306,104.914c14.496,0,26.229-11.75,26.229-26.229V26.229     C332.229,11.75,320.496,0,306,0c-14.496,0-26.229,11.75-26.229,26.229v52.457C279.771,93.164,291.504,104.914,306,104.914z      M480.857,157.372c7.239,0,13.796-2.938,18.534-7.676l34.972-34.972c4.756-4.756,7.693-11.313,7.693-18.552     c0-14.478-11.732-26.229-26.229-26.229c-7.238,0-13.796,2.938-18.552,7.694l-34.972,34.971     c-4.738,4.739-7.676,11.296-7.676,18.535C454.629,145.621,466.361,157.372,480.857,157.372z M112.59,149.695     c4.756,4.738,11.313,7.676,18.553,7.676c14.478,0,26.229-11.75,26.229-26.229c0-7.239-2.938-13.796-7.676-18.552l-34.972-34.971     c-4.756-4.739-11.313-7.676-18.552-7.676c-14.478,0-26.229,11.75-26.229,26.229c0,7.239,2.938,13.796,7.676,18.535     L112.59,149.695z M585.771,279.771h-52.457c-14.479,0-26.229,11.75-26.229,26.229c0,14.479,11.75,26.229,26.229,26.229h52.457     C600.25,332.229,612,320.479,612,306C612,291.522,600.25,279.771,585.771,279.771z M499.409,462.305     c-4.756-4.738-11.312-7.676-18.552-7.676c-14.479,0-26.229,11.75-26.229,26.229c0,7.239,2.938,13.796,7.676,18.534l34.972,34.972     c4.756,4.756,11.313,7.693,18.552,7.693c14.479,0,26.229-11.75,26.229-26.229c0-7.238-2.938-13.796-7.676-18.552L499.409,462.305     z M306,507.086c-14.496,0-26.229,11.75-26.229,26.229v52.457C279.771,600.25,291.504,612,306,612     c14.496,0,26.229-11.75,26.229-26.229v-52.457C332.229,518.836,320.496,507.086,306,507.086z M306,122.4     c-101.242,0-183.6,82.358-183.6,183.6S204.758,489.6,306,489.6S489.6,407.242,489.6,306S407.242,122.4,306,122.4z M306,437.143     c-72.321,0-131.143-58.821-131.143-131.143c0-72.321,58.822-131.143,131.143-131.143c72.321,0,131.143,58.822,131.143,131.143     C437.143,378.321,378.321,437.143,306,437.143z"
           id="path8"
           style="fill:#ffffff" /></g></g></g><g
     id="g10" /><g
     id="g12" /><g
     id="g14" /><g
     id="g16" /><g
     id="g18" /><g
     id="g20" /><g
     id="g22" /><g
     id="g24" /><g
     id="g26" /><g
     id="g28" /><g
     id="g30" /><g
     id="g32" /><g
     id="g34" /><g
     id="g36" /><g
     id="g38" /></svg>